<svg xmlns="http://www.w3.org/2000/svg" width="84.428" height="84.428" viewBox="0 0 84.428 84.428">
  <path id="_290120_account_avatar_man_profile_user_icon" data-name="290120_account_avatar_man_profile_user_icon" d="M45.214,87.428A42.214,42.214,0,1,1,87.428,45.214,42.214,42.214,0,0,1,45.214,87.428ZM68.6,75.367c-.316-.464-.714-1.041-1.033-1.492-.557-.792-1.114-1.584-1.612-2.368-.024-.036-2.778-3.731-12.7-4.181a5.873,5.873,0,0,1-5.966-6.163l-.064-1.878c0-.271-.032.3,0,0v-2.01l2.01-2.01a29.017,29.017,0,0,0,4.814-2.943l.271-.187a9.333,9.333,0,0,0,2.955-2.9l.072-.766c.75-3.866,1.938-10.9,1.938-13.305,0-9.468-4.6-14.071-14.071-14.071-9.6,0-14.071,4.471-14.071,14.071,0,2.473,1.188,9.47,1.936,13.3l.07.708c.127.629,1.606,2.119,2.913,2.939l.2.125a38.542,38.542,0,0,0,4.935,3.031l2.01,2.01v2.01c.028.277,0-.293,0,0l-.066,1.878a5.829,5.829,0,0,1-5.8,6.159h-.006c-9.962.4-12.851,4.175-12.855,4.175-.507.8-1.061,1.586-1.622,2.38-.316.45-.714,1.025-1.031,1.49a38.027,38.027,0,0,0,46.771,0ZM45.214,7.02A38.165,38.165,0,0,0,18.78,72.741c.768-1.136,1.588-2.27,2.312-3.405,0,0,3.357-5.514,16.081-6.031,1.3,0,1.944-.848,1.944-2.143h0c0-1.047,0-1.878,0-1.878,0-.261-.042-.5-.054-.75a35.172,35.172,0,0,1-5.1-3s-4.824-2.967-4.824-6.3c0,0-2.01-10.284-2.01-14.071,0-9.335,3.992-18.092,18.092-18.092,13.91,0,18.092,8.756,18.092,18.092,0,3.695-2.01,14.071-2.01,14.071,0,3.238-4.824,6.3-4.824,6.3a27.888,27.888,0,0,1-5.112,3.108c-.01.219-.046.42-.046.645,0,0,0,.83,0,1.878h0c0,1.295.643,2.143,1.94,2.143,12.913.579,16.081,6.031,16.081,6.031.724,1.136,1.542,2.27,2.31,3.405A38.164,38.164,0,0,0,45.214,7.02Z" transform="translate(-3 -3)" fill="#8b3c8f" fill-rule="evenodd"/>
</svg>
